Enemy at the Gates.2001 [Eng_It] AAC.5.1-MarGelaTu -
------------------------------------------------------ 
http://www.imdb.com/title/tt0215750/ [Jude Law, Ed Harris]

Il nemico alle Porte (IT) - 
------------------------- 
http://filmup.leonardo.it/sc_ilnemicoalleporte.htm [Jude Law, Ed Harris]

Format : MPEG-4
      Format profile : Base Media / Version 2
      Codec ID : mp42
      File size : 1.14 GiB
      Duration : 2h 5mn
      Overall bit rate : 1 305 Kbps
      Encoded date : UTC 2010-03-15 10:52:55
      Tagged date : UTC 2010-03-15 11:55:42

  Video #1
      ID : 1
      Format : AVC
      Format/Info : Advanced Video Codec
      Format profile : High@L3.0
      Format settings, CABAC : Yes
      Format settings, ReFrames : 5 frames
      Codec ID : avc1
      Codec ID/Info : Advanced Video Coding
      Duration : 2h 5mn
      Bit rate mode : Variable
      Bit rate : 914 Kbps
      Width : 720 pixels
      Height : 304 pixels
      Display aspect ratio : 2.35:1
      Frame rate mode : Variable
      Frame rate : 23.976 fps
      Minimum frame rate : 23.974 fps
      Maximum frame rate : 23.981 fps
      Resolution : 24 bits
      Colorimetry : 4:2:0
      Scan type : Progressive
      Bits/(Pixel*Frame) : 0.174
      Stream size : 820 MiB (70%)
      Writing library : x264 core 79

   Audio #2
      ID : 2
      Format : AAC
      Format/Info : Advanced Audio Codec
      Format version : Version 4
      Format profile : LC
      Format settings, SBR : No
      Codec ID : 40
      Duration : 2h 5mn
      Bit rate mode : Variable
      Bit rate : 192 Kbps
      Maximum bit rate : 256 Kbps
      Channel(s) : 6 channels
      Channel positions : Front: L C R, Rear: L R, LFE
      Sampling rate : 48.0 KHz
      Resolution : 16 bits
      Stream size : 173 MiB (15%)
      Language : Italian
      Encoded date : UTC 2010-03-15 10:52:55
      Tagged date : UTC 2010-03-15 11:55:42
   Audio #3
      ID : 3
      Format : AAC
      Format/Info : Advanced Audio Codec
      Format version : Version 4
      Format profile : LC
      Format settings, SBR : No
      Codec ID : 40
      Duration : 2h 5mn
      Bit rate mode : Variable
      Bit rate : 192 Kbps
      Maximum bit rate : 232 Kbps
      Channel(s) : 6 channels
      Channel positions : Front: L C R, Rear: L R, LFE
      Sampling rate : 48.0 KHz
      Resolution : 16 bits
      Stream size : 173 MiB (15%)
      Language : English
      Encoded date : UTC 2010-03-15 10:52:55
      Tagged date : UTC 2010-03-15 11:55:42